<svg width="230" height="21" viewBox="0 0 230 21" fill="none" xmlns="http://www.w3.org/2000/svg">
<g clip-path="url(#clip0)">
<path d="M0 1.02686V20.1672H3.36339V11.9523H22.2012V9.22097H3.36339V3.78596H23.3915V1.02686H0Z" fill="currentColor"></path>
<path d="M30.6927 3.78596V9.87955H42.5753C46.4646 9.87955 48.4439 8.97834 48.4439 6.83622C48.4439 4.69411 46.4646 3.78596 42.5753 3.78596H30.6927ZM40.5614 12.6386H30.6927V20.1672H27.3362V1.02686H42.8659C48.873 1.02686 51.8627 3.33536 51.8627 6.83622C51.8627 9.99047 49.4612 12.1603 44.6168 12.5624L52.3125 20.0633L52.2571 20.1672H48.1532L40.5614 12.6386Z" fill="currentColor"></path>
<path d="M136.21 1.02686V9.22097H118.009V1.02686H114.646V20.1672H118.009V11.9731H136.21V20.1672H139.574V1.02686H136.21Z" fill="currentColor"></path>
<path d="M157.906 17.727C165.131 17.727 169.097 14.9541 169.097 10.4896C169.097 6.02513 165.131 3.27296 157.906 3.27296C150.681 3.27296 146.716 6.04593 146.716 10.4896C146.716 14.9333 150.688 17.727 157.906 17.727ZM157.906 20.5C148.674 20.4861 143.256 16.7218 143.256 10.4896C143.256 4.25737 148.674 0.5 157.906 0.5C167.138 0.5 172.564 4.2643 172.564 10.4896C172.564 16.7149 167.145 20.4861 157.906 20.4861" fill="currentColor"></path>
<path d="M176.322 1.02686V20.1672H198.336V17.4636H179.685V1.02686H176.322Z" fill="currentColor"></path>
<path d="M205.617 3.78596V17.4081H215.036C222.711 17.4081 225.908 15.2383 225.908 10.6005C225.908 5.96274 222.711 3.78596 215.036 3.78596H205.617ZM202.253 1.013H215.485C224.849 1.013 229.375 4.61785 229.375 10.5867C229.375 16.5555 224.849 20.1534 215.534 20.1534H202.253V1.013Z" fill="currentColor"></path>
<path d="M110.805 5.10312H85.8772V7.86222H110.805V5.10312Z" fill="currentColor"></path>
<path d="M110.805 13.3458H85.8772V16.1049H110.805V13.3458Z" fill="currentColor"></path>
<path d="M81.102 5.10312H56.1742V7.86222H81.102V5.10312Z" fill="currentColor"></path>
<path d="M81.102 13.3458H56.1742V16.1049H81.102V13.3458Z" fill="currentColor"></path>
</g>
<defs>
<clipPath id="clip0">
<rect width="229.375" height="20" fill="currentColor" transform="translate(0 0.5)"></rect>
</clipPath>
</defs>
</svg>